<?xml version="1.0" encoding="UTF-8"?>
<svg xmlns="http://www.w3.org/2000/svg" xmlns:xlink="http://www.w3.org/1999/xlink" width="400pt" height="267pt" viewBox="0 0 400 267" version="1.1">
<g id="surface1">
<path style=" stroke:none;fill-rule:nonzero;fill:rgb(84.705882%,12.156863%,14.901961%);fill-opacity:1;" d="M 88.460938 169.761719 C 83.832031 170.578125 79.125 170.820312 74.25 171.472656 L 59.390625 127.890625 L 59.390625 173.339844 C 54.761719 173.828125 50.539062 174.480469 46.152344 175.128906 L 46.152344 91.871094 L 58.496094 91.871094 L 75.386719 139.109375 L 75.386719 91.871094 L 88.460938 91.871094 Z M 114.042969 122.359375 C 119.078125 122.359375 126.792969 122.117188 131.421875 122.117188 L 131.421875 135.125 C 125.65625 135.125 118.914062 135.125 114.042969 135.371094 L 114.042969 154.722656 C 121.675781 154.234375 129.308594 153.582031 137.023438 153.339844 L 137.023438 165.859375 L 101.050781 168.707031 L 101.050781 91.871094 L 137.023438 91.871094 L 137.023438 104.878906 L 114.042969 104.878906 Z M 185.34375 104.878906 L 171.863281 104.878906 L 171.863281 164.722656 C 167.476562 164.722656 163.089844 164.722656 158.871094 164.882812 L 158.871094 104.878906 L 145.390625 104.878906 L 145.390625 91.871094 L 185.34375 91.871094 Z M 206.457031 121.464844 L 224.238281 121.464844 L 224.238281 134.476562 L 206.457031 134.476562 L 206.457031 163.992188 L 193.707031 163.992188 L 193.707031 91.871094 L 230.003906 91.871094 L 230.003906 104.878906 L 206.457031 104.878906 Z M 251.121094 152.605469 C 258.507812 152.769531 265.980469 153.339844 273.207031 153.746094 L 273.207031 166.59375 C 261.59375 165.859375 249.984375 165.128906 238.125 164.882812 L 238.125 91.871094 L 251.121094 91.871094 Z M 284.171875 167.488281 C 288.3125 167.730469 292.695312 167.976562 296.917969 168.460938 L 296.917969 91.871094 L 284.171875 91.871094 Z M 353.847656 91.871094 L 337.359375 131.46875 L 353.847656 175.128906 C 348.972656 174.480469 344.101562 173.585938 339.226562 172.773438 L 329.890625 148.703125 L 320.390625 170.820312 C 315.679688 170.007812 311.132812 169.761719 306.421875 169.113281 L 323.152344 130.980469 L 308.046875 91.871094 L 322.011719 91.871094 L 330.539062 113.742188 L 339.636719 91.871094 Z M 353.847656 91.871094 "/>
</g>
</svg>
